<svg width="40" height="40" viewBox="0 0 40 40" fill="none" xmlns="http://www.w3.org/2000/svg">
<path d="M18.6208 6.17117C18.9116 5.71805 18.7894 5.10542 18.3493 4.80958L16.3858 3.48978C15.9541 3.19961 15.378 3.32357 15.0928 3.76797L12.6615 7.5564L16.4642 9.53148L18.6208 6.17117Z" fill="#323232"/>
<path d="M21.9618 12.3869L23.7418 9.61325C24.0326 9.16013 23.9105 8.54749 23.4703 8.25166L21.5068 6.93186C21.0751 6.64169 20.4991 6.76565 20.2139 7.21005L18.1591 10.4118L21.9618 12.3869Z" fill="#323232"/>
<path d="M24.1101 18.0959L22.3884 17.3011C21.8559 17.0552 21.6648 16.3706 21.9879 15.8669L25.3346 10.652C25.6198 10.2076 26.1959 10.0837 26.6276 10.3738L28.1868 11.422C28.6269 11.7178 28.7491 12.3304 28.4583 12.7835L25.2741 17.7452C25.0201 18.141 24.5285 18.2891 24.1101 18.0959Z" fill="#323232"/>
<path d="M32.904 14.5924L31.3448 13.5443C30.9131 13.2541 30.3371 13.3781 30.0519 13.8225L27.1967 18.2715C26.8735 18.7751 27.0646 19.4598 27.5971 19.7056L29.3188 20.5005C29.7373 20.6936 30.2288 20.5456 30.4828 20.1497L33.1755 15.9539C33.4663 15.5009 33.3442 14.8883 32.904 14.5924Z" fill="#323232"/>
<path d="M28.5546 22.2854C28.9176 22.453 29.303 22.5381 29.6997 22.5381C30.4895 22.5381 31.2311 22.1966 31.7597 21.608V24.4663C31.7597 26.3973 30.8364 28.1895 29.2897 29.2605C28.9408 29.5022 28.705 29.666 28.705 29.666C28.4442 29.8473 28.2877 30.1517 28.2877 30.4777V35.69C28.2877 36.2293 27.8667 36.6666 27.3476 36.6666H13.1297C12.5182 36.6666 12.0694 36.0695 12.2177 35.4532L13.9368 28.31C14.005 28.0267 13.9475 27.7266 13.7802 27.4919L6.8513 17.775C6.61527 17.444 6.60456 16.9947 6.82454 16.652L11.1503 9.91158C11.4132 9.50181 11.9288 9.35955 12.3529 9.5798L19.9582 13.53C20.464 13.7927 20.6337 14.4565 20.32 14.9452L19.7449 15.8414C19.5705 16.1131 19.277 16.2763 18.9627 16.2763H13.0248C12.4905 16.2763 12.0603 16.7393 12.0858 17.3001C12.1096 17.8253 12.5452 18.2294 13.0514 18.2294H17.0732L21.431 27.2831C21.6573 27.7534 22.2001 27.9773 22.663 27.7645C23.1571 27.5373 23.3634 26.9307 23.1245 26.4342L19.1753 18.2294H19.7694L28.5546 22.2854Z" fill="#323232"/>
</svg>
