<svg width="119" height="119" viewBox="0 0 119 119" fill="none" xmlns="http://www.w3.org/2000/svg">
<path d="M15.1474 54.5417H24.7917C30.2685 54.5417 34.7083 58.9815 34.7083 64.4583V69.4167C34.7083 74.8935 39.1482 79.3333 44.625 79.3333C50.1018 79.3333 54.5417 83.7732 54.5417 89.25V103.853M39.6667 19.5136V27.2708C39.6667 34.1169 45.2165 39.6667 52.0625 39.6667H54.5417C60.0185 39.6667 64.4583 44.1065 64.4583 49.5833C64.4583 55.0602 68.8982 59.5 74.375 59.5C79.8518 59.5 84.2917 55.0602 84.2917 49.5833C84.2917 44.1065 88.7315 39.6667 94.2083 39.6667L99.4864 39.6667M74.375 101.586V89.25C74.375 83.7732 78.8148 79.3333 84.2917 79.3333H99.4864M104.125 59.5C104.125 84.1457 84.1457 104.125 59.5 104.125C34.8543 104.125 14.875 84.1457 14.875 59.5C14.875 34.8543 34.8543 14.875 59.5 14.875C84.1457 14.875 104.125 34.8543 104.125 59.5Z" stroke="black" stroke-width="2" stroke-linecap="round" stroke-linejoin="round"/>
</svg>
